<svg version="1.1" xmlns:cc="http://creativecommons.org/ns#" xmlns:dc="http://purl.org/dc/elements/1.1/" xmlns:rdf="http://www.w3.org/1999/02/22-rdf-syntax-ns#" xmlns="http://www.w3.org/2000/svg" xmlns:xlink="http://www.w3.org/1999/xlink" x="0px" y="0px" viewBox="0 0 1024 768" xml:space="preserve">
<style>
#c1 {
	transform: scale(0);
	opacity: 0;
	transform-origin: 50% 50%;
	animation: pulse 4s cubic-bezier(.5,.5,0,1) infinite;	
}

#c2 {
	transform: scale(0);
	opacity: 0;
	transform-origin: 50% 50%;
	animation: pulse 4s 0.75s cubic-bezier(.5,.5,0,1) infinite;
}

#c3 {
	transform: scale(0);
	opacity: 0;
	transform-origin: 50% 50%;
	animation: pulse 4s 1.5s cubic-bezier(.5,.5,0,1) infinite;
}

@keyframes pulse {
	
	12% {
		opacity: 0.3;
	}
	
	50% {
		transform: scale(1);
	}
	
	100% {
		transform: scale(1);
	}
	
}
</style>
<defs>
<clipPath id="clip-path">
  <rect id="clip" width="1024" height="100" x="0" y="0" /> 
</clipPath>
</defs>

<circle id="c1" cx="512" cy="384" r="370" stroke="#eff4fa" stroke-width="10" fill="none"></circle>
<circle id="c2" cx="512" cy="384" r="370" stroke="#eff4fa" stroke-width="10" fill="none"></circle>
<circle id="c3" cx="512" cy="384" r="370" stroke="#eff4fa" stroke-width="10" fill="none"></circle>

<g id="fade">

 
 <g id="logo-group" fill="#eff4fa" stroke-width="0" stroke-miterlimit="2" transform="translate(0.000005 -0.000001) scale(1)">
  <path id="path97686" style="font-variant-ligatures:none" d="m266.19 421.29c5.7622 1.5221 11.742 2.2831 17.939 2.2831 7.1755 0 13.373-1.0872 18.482-3.2616 5.0011-2.1744 8.8063-5.2186 11.416-8.915 2.5006-3.6965 3.8052-7.8278 3.8052-12.394 0-5.2186-1.4134-9.4586-4.2401-12.503-2.8267-3.0442-6.0883-5.3273-9.8935-6.7406-3.8052-1.4134-8.5889-2.718-14.351-4.0226-5.2186-1.0872-8.915-2.0657-11.198-3.1529-2.3918-0.97848-3.479-2.5006-3.479-4.5662 0-1.957 0.97848-3.5878 2.9354-4.8924 1.957-1.3046 5.0011-1.957 9.3499-1.957 6.7406 0 13.807 1.957 21.092 5.8709l6.63-15.98c-3.6965-2.1744-8.0453-3.8052-12.829-4.8924-4.8924-1.0872-9.7848-1.7395-14.786-1.7395-7.393 0-13.59 1.0872-18.591 3.2616-5.0011 2.1744-8.8063 5.2186-11.307 8.915-2.6093 3.6965-3.8052 7.9366-3.8052 12.503 0 5.3273 1.3046 9.5674 4.1314 12.612 2.718 3.1529 5.9796 5.436 9.8935 6.8494 3.8052 1.4134 8.5889 2.718 14.351 3.9139 5.2186 1.1959 8.915 2.2831 11.307 3.3703 2.3918 1.0872 3.5878 2.6093 3.5878 4.7837 0 4.1314-4.1314 6.197-12.394 6.197-4.3488 0-8.8063-0.65232-13.264-2.0657-4.5662-1.3046-8.4802-3.1529-11.85-5.436l-7.0668 15.873c3.5878 2.6093 8.2627 4.5662 14.134 6.0883z"/>
  <path id="path97688" style="font-variant-ligatures:none" d="m366.74 394.76 29.14-48.81h-20.88l-18.04 30.22-18.05-30.22h-22.722l29.028 48.489v27.61h21.527z"/>
  <path id="path97690" style="font-variant-ligatures:none" d="m464.09 345.95h-13.264l-14.895 17.069-38.378 45.554v13.48h12.72l15.438-17.069 38.378-45.554zm-34.247 0h-31.31v17.069h15.873zm16.852 59.035-15.003 17.069h34.029v-17.069z"/>
  <path id="path97692" style="font-variant-ligatures:none" d="m516.02 394.76 29.14-48.81h-20.88l-18.05 30.22-18.04-30.22h-22.722l29.028 48.489v27.61h21.527z"/>
  <path id="path97694" style="font-variant-ligatures:none" d="m550.21 422.05h21.092v-12.83l-21.09-26.85zm51.316-76.104v13.807l21.092 25.44v-39.25zm0 40.553-33.594-40.553h-17.721v10.111l21.092 25.44 33.594 40.553h17.721v-8.8063l-21.092-26.854z"/>
  <path id="path97696" style="font-variant-ligatures:none" d="m698.24 345.95h-60.34v16.634h60.34zm0 29.463h-60.34v16.091h60.34zm-60.34 30.007v16.63h60.34v-16.634z"/>
  <path id="path97698" style="font-variant-ligatures:none" d="m727.15 363.02v59.03h21.527v-59.035h23.266v-17.07h-68.167v17.069z"/>
 </g>

</g>
</svg>